<svg id="Capa_1" data-name="Capa 1" xmlns="http://www.w3.org/2000/svg" viewBox="0 0 133.87 133.61"><path d="M470.66,282.46v9.15c-.08.33-.18.65-.25,1-.76,4.23-1.12,8.58-2.36,12.66-6.87,22.63-21.66,37.75-44,45.37-3.87,1.32-8,2-12.08,3V300.76h16c.8-6.25,1.59-12.35,2.4-18.62H411.88c0-4.6-.13-9.05,0-13.48.17-4.72,2.66-7.13,7.4-7.38,3-.16,6-.15,9-.21.86,0,1.71,0,2.59,0v-16.5a2,2,0,0,0-.53-.17c-5.48-.21-11-.58-16.44-.54a20.73,20.73,0,0,0-9.61,2.59c-7.73,4.1-11,10.94-11.55,19.3-.27,4.21-.13,8.45-.17,12.67,0,1.21,0,2.42,0,3.78h-16v18.63h15.91v52a63.57,63.57,0,0,1-12.64-3.45A66.29,66.29,0,0,1,349.44,326a66.86,66.86,0,0,1-7.1-65.78c12.32-27.75,40.44-43.64,70.43-39.63a66.94,66.94,0,0,1,56.86,54.67C470,277.65,470.32,280.06,470.66,282.46Z" transform="translate(-336.79 -219.97)"/></svg>