<?xml version="1.0" encoding="utf-8"?>
<!-- Generator: Adobe Illustrator 24.1.2, SVG Export Plug-In . SVG Version: 6.00 Build 0)  -->
<svg version="1.1" id="Capa_1" xmlns="http://www.w3.org/2000/svg" xmlns:xlink="http://www.w3.org/1999/xlink" x="0px" y="0px"
	 viewBox="0 0 792 612" style="enable-background:new 0 0 792 612;" xml:space="preserve">
<path d="M416.1,461.5c-103-0.3-185.7-83.8-185.4-187.2c0.3-101.4,83.9-184.2,185.8-184c103.2,0.2,185.7,83.5,185.4,187
	C601.5,378.5,517.6,461.7,416.1,461.5z M534.8,276c0,0-0.1,0-0.1,0c0-19.6,0.2-39.2-0.1-58.8c-0.3-15.5-6.4-28.8-17-40
	C504.5,163.4,488,157,469.1,157c-35.2,0-70.4-0.1-105.5,0.1c-5,0-10,0.5-14.9,1.4c-28,5.1-50.3,30.2-50.8,58.6
	c-0.6,39.2-0.7,78.4,0,117.5c0.6,32.3,29,59.4,61.3,59.6c37.9,0.2,75.8,0.1,113.8,0c3.5,0,7-0.5,10.4-1.2
	c28.3-5.3,52.1-30.8,51.4-63.6C534.5,311.7,534.8,293.8,534.8,276z"/>
<path d="M416.1,175.6c17,0,33.9-0.5,50.9,0.1c24.8,0.9,46.9,22.7,48.8,47.4c0.3,3.8,0.5,7.7,0.5,11.6c0,28.9,0.1,57.9,0,86.8
	c-0.1,26.8-17.1,47.7-43.3,53.5c-3.6,0.8-7.4,1.1-11.1,1.2c-30.3,0.1-60.6,0.1-90.9,0c-26.9,0-48.6-17.9-53.8-44.3
	c-0.7-3.6-0.9-7.4-0.9-11.2c-0.1-29.9-0.1-59.9,0-89.8c0-28.5,17.7-49.7,45.7-54.9c3.2-0.6,6.5-0.6,9.7-0.6c14.8-0.1,29.7,0,44.5,0
	C416.1,175.5,416.1,175.5,416.1,175.6z M350.6,275.8c0,35.7,29.5,64.6,65.8,64.6c36,0,65.3-28.9,65.5-64.5
	c0.2-35.6-29.3-64.6-65.6-64.7C380,211.1,350.6,240.1,350.6,275.8z M502.5,214.3c0.1-10-7.7-18.3-17.6-18.5
	c-10.6-0.2-19,7.8-19.1,18.2c0,9.9,8.2,18.3,18.2,18.5C494,232.6,502.4,224.4,502.5,214.3z"/>
<path d="M463.3,275.8c0,25.3-21.3,46.3-47.1,46.3c-25.9,0-47.2-21.1-47.1-46.6c0.1-25.5,21.3-46,47.6-45.9
	C442.3,229.6,463.3,250.5,463.3,275.8z"/>
</svg>
