<?xml version="1.0" encoding="utf-8"?>
<!-- Generator: Adobe Illustrator 24.1.2, SVG Export Plug-In . SVG Version: 6.00 Build 0)  -->
<svg version="1.1" id="Capa_1" xmlns="http://www.w3.org/2000/svg" xmlns:xlink="http://www.w3.org/1999/xlink" x="0px" y="0px"
	 viewBox="0 0 792 612" style="enable-background:new 0 0 792 612;" xml:space="preserve">
<path d="M269.8,287.6c0-6,0-12,0-18c0.2-0.8,0.4-1.7,0.5-2.5c0.7-4.8,1-9.6,2-14.4c6.6-33.1,23.2-60.3,49.8-81
	c30.2-23.4,64.5-32.3,102.3-27.3c22.2,2.9,42.7,11,60.5,24.6c42.6,32.4,61.1,75.6,54.7,128.6c-3.8,31.9-18.6,58.9-42.2,80.8
	c-19.4,18-42.2,29.4-68.4,33.9c-4.8,0.8-9.7,1.4-14.6,2.1c-6,0-12,0-18,0c-3.3-0.4-6.6-0.7-9.9-1.2c-31.8-4.8-58.9-18.8-80.7-42.4
	c-17.9-19.4-29.3-42.1-33.8-68.1C271.1,297.6,270.5,292.6,269.8,287.6z M406.1,259.2c-0.5-7.6-0.9-14-1.3-20.4
	c-1-14.8-2-29.6-3-44.3c-0.4-6.3-0.8-12.7-1.6-19c-0.5-4.7-2.9-6.5-7.7-6.7c-0.9,0-1.8,0-2.6,0c-15.2,0.8-29.4,4.9-43,11.6
	c-8.5,4.2-9.6,7.7-4.5,15.7c14.3,22.6,28.5,45.1,42.9,67.6c1.8,2.8,3.9,5.5,6.4,7.7c5.1,4.4,11.7,2,13.2-4.5
	C405.6,264.1,405.9,261.1,406.1,259.2z M459.9,233.5c-3.8,0.1-5.9,1.7-7.5,3.9c-9.8,13.2-19.5,26.3-29.2,39.6
	c-2.5,3.4-2.5,7-0.2,10.6c2.3,3.6,5.7,5.3,9.9,4.4c6-1.3,12-2.8,17.9-4.3c10.2-2.6,20.5-5.1,30.6-7.9c5.3-1.5,7.2-5,5.5-10.1
	c-4.5-13.3-12.1-24.6-22.7-33.8C462.8,234.7,460.9,234.1,459.9,233.5z M405,343c0.1,0,0.3,0,0.4,0c0-2.9,0-5.8,0-8.7
	c0-1.7-0.2-3.3-0.3-5c-0.3-3.6-2.4-5.8-5.6-7c-3.3-1.3-6.7-1.4-9.4,1.2c-2.9,2.9-5.6,6.1-8.3,9.3c-8.3,9.8-16.6,19.6-24.8,29.6
	c-3.8,4.6-3.4,8.8,1.2,12.1c11.4,8.1,24,12.8,37.9,13.9c6,0.5,8.9-2.4,9-8.3C405,367.7,405,355.4,405,343z M433.7,311.4
	c-7.5,0-12.4,8.1-9.1,13.9c2.1,3.8,4.5,7.4,6.8,11c6.5,10.5,13,21,19.6,31.4c3,4.8,6.5,5.6,11.4,2.8c1.4-0.8,2.7-1.7,3.8-2.8
	c3.7-3.8,7.6-7.4,10.9-11.5c4.7-5.8,8.9-12,11.2-19.3c0.9-3,0.2-5.5-2.1-7.4c-1.2-1-2.8-1.8-4.4-2.3c-14.9-5-29.9-10-44.8-15
	C435.8,311.8,434.4,311.5,433.7,311.4z M321.7,300.8c0.2,0,0.4,0,0.6,0c0,2.5-0.1,4.9,0,7.4c0.1,2.5,0.3,4.9,0.5,7.4
	c0.4,5.9,4.3,8.8,10.1,7.6c0.9-0.2,1.7-0.4,2.6-0.7c14.4-4.6,28.8-9.1,43.2-13.7c1.7-0.5,3.4-1.2,4.8-2.2c5.9-4.3,4.4-13.6-2.9-16.6
	c-14.7-6.2-29.4-12.1-44.3-17.9c-6.9-2.7-11.3-0.1-12.3,7.2C322.9,286.4,322.4,293.6,321.7,300.8z"/>
</svg>
